<?xml version="1.0" standalone="no"?>
<!DOCTYPE svg PUBLIC "-//W3C//DTD SVG 20010904//EN"
 "http://www.w3.org/TR/2001/REC-SVG-20010904/DTD/svg10.dtd">
<svg version="1.0" xmlns="http://www.w3.org/2000/svg"
 width="700.000000pt" height="700.000000pt" viewBox="0 0 700.000000 700.000000"
 preserveAspectRatio="xMidYMid meet">
<metadata>
Created by potrace 1.11, written by Peter Selinger 2001-2013
</metadata>
<g transform="translate(0.000000,700.000000) scale(0.100000,-0.100000)"
fill="#000000" stroke="none">
<path d="M6790 6371 c-39 -21 -81 -29 -190 -36 -113 -8 -148 -14 -230 -41
-141 -47 -271 -134 -363 -244 l-28 -33 -57 55 c-69 66 -111 97 -177 130 -82
42 -183 68 -279 73 -143 8 -207 16 -267 35 -64 19 -91 20 -134 2 -70 -30 -88
-103 -53 -220 43 -142 118 -265 232 -377 96 -95 201 -168 335 -233 l98 -47
-17 -85 c-42 -206 -101 -374 -198 -563 -53 -105 -68 -126 -78 -115 -13 13
-144 272 -144 284 0 19 -66 84 -95 94 -72 24 -128 -40 -165 -186 -11 -43 -23
-103 -27 -133 -9 -79 -9 -271 1 -366 4 -44 9 -89 10 -100 3 -33 -23 -98 -52
-128 -51 -53 -256 -173 -412 -240 -129 -56 -263 -77 -450 -72 -80 2 -156 6
-170 9 -14 3 -68 12 -120 21 -79 13 -257 56 -397 96 -18 5 -48 13 -65 18 -18
5 -130 38 -248 74 -215 66 -513 151 -560 161 -14 3 -63 14 -110 25 -47 10
-101 22 -120 25 -19 3 -73 12 -120 20 -211 37 -543 42 -712 11 -141 -26 -214
-44 -316 -80 -202 -70 -369 -164 -557 -314 -169 -135 -452 -448 -509 -565 -60
-122 -60 -254 -2 -406 179 -462 525 -877 951 -1142 305 -189 681 -319 1070
-368 50 -6 101 -14 115 -17 14 -3 168 -7 343 -8 l317 -3 83 -82 c97 -97 201
-179 327 -255 117 -72 183 -85 261 -52 94 39 135 112 154 272 2 17 6 43 9 59
6 31 19 175 20 221 1 28 6 31 110 72 l109 42 68 -45 c170 -113 436 -206 654
-229 33 -4 73 -9 89 -11 42 -7 131 22 170 56 50 44 80 121 73 190 -7 75 -67
276 -127 430 -28 69 -50 129 -50 132 0 3 35 34 77 69 110 91 313 295 427 429
422 495 705 1021 860 1600 25 93 69 306 80 385 3 22 8 56 11 75 3 19 7 62 10
95 3 33 8 92 11 130 4 39 7 157 8 263 l1 193 95 48 c81 40 234 133 250 151 3
3 19 16 35 29 108 82 211 204 268 317 60 117 90 269 67 339 -25 77 -120 108
-200 66z"/>
<path d="M2223 5613 c-28 -6 -93 -67 -120 -113 -43 -72 -65 -168 -68 -290 -4
-151 6 -193 48 -213 59 -28 92 -12 142 69 22 36 51 77 65 93 14 15 41 47 61
72 20 24 49 58 63 74 80 90 72 212 -20 281 -28 22 -48 28 -92 30 -32 1 -67 0
-79 -3z"/>
<path d="M1592 5228 c-92 -20 -161 -124 -147 -221 10 -66 39 -102 149 -185
132 -100 139 -106 214 -179 54 -53 69 -63 99 -63 48 0 91 45 87 92 -14 185
-76 359 -166 462 -73 83 -148 113 -236 94z"/>
<path d="M2571 5098 c-158 -25 -342 -201 -456 -440 -41 -84 -40 -121 0 -155
27 -23 82 -31 100 -14 36 33 191 98 375 158 163 53 208 93 228 200 26 144
-102 274 -247 251z"/>
</g>
</svg>
